# xmcd
#
# Track frame offsets: 
#        150
#        18952
#        35995
#        57580
#        73092
#        92305
#        107305
#        128512
#        168665
#        187027
#        202327
#        223415
#
# Disc length: 3202 seconds
#
# Revision: 0
# Processed by: cddbd v1.5.2PL0 Copyright (c) Steve Scherf et al.
# Submitted via: ExactAudioCopy v0.95b4
#
DISCID=b50c800c
DTITLE=Los Lonely Boys - Los Lonely Boys
DYEAR=2003
DGENRE=Blues
TTITLE0=Senorita
TTITLE1=Heaven
TTITLE2=Crazy Dream
TTITLE3=Dime Mi Amor
TTITLE4=Hollywood
TTITLE5=More Than Love
TTITLE6=Nobody Else
TTITLE7=Onda
TTITLE8=Real Emotions
TTITLE9=Tell Me Why
TTITLE10=Velvet Sky
TTITLE11=La Contestacion
EXTD=
EXTT0=
EXTT1=
EXTT2=
EXTT3=
EXTT4=
EXTT5=
EXTT6=
EXTT7=
EXTT8=
EXTT9=
EXTT10=
EXTT11=
PLAYORDER=
